<?xml version="1.0" encoding="UTF-8" standalone="no"?>
<!DOCTYPE svg PUBLIC "-//W3C//DTD SVG 1.1//EN"
 "http://www.w3.org/Graphics/SVG/1.1/DTD/svg11.dtd">
<!-- Generated by graphviz version 2.28.0 (20110507.0327)
 -->
<!-- Title: ily_at_mail_it Pages: 1 -->
<svg width="636pt" height="505pt"
 viewBox="0.00 0.00 635.59 504.72" xmlns="http://www.w3.org/2000/svg" xmlns:xlink="http://www.w3.org/1999/xlink">
<g id="graph1" class="graph" transform="scale(1 1) rotate(0) translate(4 500.724)">
<title>ily_at_mail_it</title>
<polygon fill="white" stroke="white" points="-4,5 -4,-500.724 632.586,-500.724 632.586,5 -4,5"/>
<!-- ily_at_mail_it -->
<g id="node2" class="node"><title>ily_at_mail_it</title>
<ellipse fill="Skyblue" stroke="Skyblue" cx="117.868" cy="-298.334" rx="64.0209" ry="16.0303"/>
<text text-anchor="middle" x="117.868" y="-294.634" font-family="Times New Roman,serif" font-size="14.00">ily_at_mail_it</text>
</g>
<!-- sore_at_mail_it -->
<g id="node3" class="node"><title>sore_at_mail_it</title>
<ellipse fill="Gray" stroke="Gray" cx="317.933" cy="-255.518" rx="72.1874" ry="16.0303"/>
<text text-anchor="middle" x="317.933" y="-251.818" font-family="Times New Roman,serif" font-size="14.00">sore_at_mail_it</text>
</g>
<!-- ily_at_mail_it&#45;&#45;sore_at_mail_it -->
<g id="edge4" class="edge"><title>ily_at_mail_it&#45;&#45;sore_at_mail_it</title>
<path fill="none" stroke="black" d="M167.066,-287.805C196.916,-281.417 234.991,-273.268 265.423,-266.755"/>
</g>
<!-- nico_at_mail_it -->
<g id="node9" class="node"><title>nico_at_mail_it</title>
<ellipse fill="Gray" stroke="Gray" cx="182.884" cy="-115.285" rx="72.1874" ry="16.0303"/>
<text text-anchor="middle" x="182.884" y="-111.585" font-family="Times New Roman,serif" font-size="14.00">nico_at_mail_it</text>
</g>
<!-- ily_at_mail_it&#45;&#45;nico_at_mail_it -->
<g id="edge6" class="edge"><title>ily_at_mail_it&#45;&#45;nico_at_mail_it</title>
<path fill="none" stroke="black" d="M123.638,-282.089C135.945,-247.44 164.656,-166.606 177.034,-131.756"/>
</g>
<!-- matelda_at_mail_it -->
<g id="node4" class="node"><title>matelda_at_mail_it</title>
<ellipse fill="Gray" stroke="Gray" cx="477.039" cy="-90.4152" rx="85.3397" ry="16.0303"/>
<text text-anchor="middle" x="477.039" y="-86.7152" font-family="Times New Roman,serif" font-size="14.00">matelda_at_mail_it</text>
</g>
<!-- sore_at_mail_it&#45;&#45;matelda_at_mail_it -->
<g id="edge8" class="edge"><title>sore_at_mail_it&#45;&#45;matelda_at_mail_it</title>
<path fill="none" stroke="black" d="M333.479,-239.386C363.818,-207.904 430.618,-138.586 461.195,-106.857"/>
</g>
<!-- claudia_at_mail_it -->
<g id="node5" class="node"><title>claudia_at_mail_it</title>
<ellipse fill="Gray" stroke="Gray" cx="357.053" cy="-480.461" rx="82.5969" ry="16.0303"/>
<text text-anchor="middle" x="357.053" y="-476.761" font-family="Times New Roman,serif" font-size="14.00">claudia_at_mail_it</text>
</g>
<!-- sore_at_mail_it&#45;&#45;claudia_at_mail_it -->
<g id="edge10" class="edge"><title>sore_at_mail_it&#45;&#45;claudia_at_mail_it</title>
<path fill="none" stroke="black" d="M320.81,-272.058C328.062,-313.759 347.025,-422.801 354.225,-464.199"/>
</g>
<!-- gabri_at_mail_it -->
<g id="node6" class="node"><title>gabri_at_mail_it</title>
<ellipse fill="Gray" stroke="Gray" cx="495.356" cy="-394.69" rx="74.4303" ry="16.0303"/>
<text text-anchor="middle" x="495.356" y="-390.99" font-family="Times New Roman,serif" font-size="14.00">gabri_at_mail_it</text>
</g>
<!-- sore_at_mail_it&#45;&#45;gabri_at_mail_it -->
<g id="edge12" class="edge"><title>sore_at_mail_it&#45;&#45;gabri_at_mail_it</title>
<path fill="none" stroke="black" d="M337.941,-271.212C372.017,-297.941 440.939,-352.005 475.149,-378.84"/>
</g>
<!-- rebe_at_mail_it -->
<g id="node7" class="node"><title>rebe_at_mail_it</title>
<ellipse fill="Gray" stroke="Gray" cx="194.196" cy="-458.227" rx="72.1874" ry="16.0303"/>
<text text-anchor="middle" x="194.196" y="-454.527" font-family="Times New Roman,serif" font-size="14.00">rebe_at_mail_it</text>
</g>
<!-- sore_at_mail_it&#45;&#45;rebe_at_mail_it -->
<g id="edge14" class="edge"><title>sore_at_mail_it&#45;&#45;rebe_at_mail_it</title>
<path fill="none" stroke="black" d="M308.017,-271.764C284.848,-309.719 227.375,-403.872 204.16,-441.904"/>
</g>
<!-- braccio_at_mail_it -->
<g id="node8" class="node"><title>braccio_at_mail_it</title>
<ellipse fill="Gray" stroke="Gray" cx="543.16" cy="-238.652" rx="84.2802" ry="16.0303"/>
<text text-anchor="middle" x="543.16" y="-234.952" font-family="Times New Roman,serif" font-size="14.00">braccio_at_mail_it</text>
</g>
<!-- sore_at_mail_it&#45;&#45;braccio_at_mail_it -->
<g id="edge16" class="edge"><title>sore_at_mail_it&#45;&#45;braccio_at_mail_it</title>
<path fill="none" stroke="black" d="M386.426,-250.389C410.886,-248.557 438.645,-246.479 463.935,-244.585"/>
</g>
<!-- sore_at_mail_it&#45;&#45;nico_at_mail_it -->
<g id="edge18" class="edge"><title>sore_at_mail_it&#45;&#45;nico_at_mail_it</title>
<path fill="none" stroke="black" d="M302.442,-239.431C276.391,-212.381 224.124,-158.108 198.196,-131.184"/>
</g>
<!-- chiara_at_mail_it -->
<g id="node10" class="node"><title>chiara_at_mail_it</title>
<ellipse fill="Gray" stroke="Gray" cx="78.2444" cy="-171.703" rx="78.2333" ry="16.0303"/>
<text text-anchor="middle" x="78.2444" y="-168.003" font-family="Times New Roman,serif" font-size="14.00">chiara_at_mail_it</text>
</g>
<!-- sore_at_mail_it&#45;&#45;chiara_at_mail_it -->
<g id="edge20" class="edge"><title>sore_at_mail_it&#45;&#45;chiara_at_mail_it</title>
<path fill="none" stroke="black" d="M278.622,-241.771C234.396,-226.306 162.937,-201.319 118.377,-185.737"/>
</g>
<!-- jack_at_mail_it -->
<g id="node11" class="node"><title>jack_at_mail_it</title>
<ellipse fill="Gray" stroke="Gray" cx="329.312" cy="-16.2635" rx="71.127" ry="16.0303"/>
<text text-anchor="middle" x="329.312" y="-12.5635" font-family="Times New Roman,serif" font-size="14.00">jack_at_mail_it</text>
</g>
<!-- sore_at_mail_it&#45;&#45;jack_at_mail_it -->
<g id="edge22" class="edge"><title>sore_at_mail_it&#45;&#45;jack_at_mail_it</title>
<path fill="none" stroke="black" d="M318.716,-239.073C320.794,-195.365 326.44,-76.6628 328.525,-32.8234"/>
</g>
</g>
</svg>
