<?xml version="1.0" encoding="UTF-8" standalone="no"?>
<!DOCTYPE svg PUBLIC "-//W3C//DTD SVG 1.1//EN"
 "http://www.w3.org/Graphics/SVG/1.1/DTD/svg11.dtd">
<!-- Generated by graphviz version 2.28.0 (20110507.0327)
 -->
<!-- Title: gianuzzi_at_disi_unige_it Pages: 1 -->
<svg width="720pt" height="562pt"
 viewBox="0.00 0.00 720.09 561.63" xmlns="http://www.w3.org/2000/svg" xmlns:xlink="http://www.w3.org/1999/xlink">
<g id="graph1" class="graph" transform="scale(1 1) rotate(0) translate(4 557.63)">
<title>gianuzzi_at_disi_unige_it</title>
<polygon fill="white" stroke="white" points="-4,5 -4,-557.63 717.087,-557.63 717.087,5 -4,5"/>
<!-- gianuzzi_at_disi_unige_it -->
<g id="node2" class="node"><title>gianuzzi_at_disi_unige_it</title>
<ellipse fill="Skyblue" stroke="Skyblue" cx="110.154" cy="-230.494" rx="109.964" ry="16.0303"/>
<text text-anchor="middle" x="110.154" y="-226.794" font-family="Times New Roman,serif" font-size="14.00">gianuzzi_at_disi_unige_it</text>
</g>
<!-- sore_at_mail_it -->
<g id="node3" class="node"><title>sore_at_mail_it</title>
<ellipse fill="Gray" stroke="Gray" cx="365.747" cy="-272.199" rx="72.1874" ry="16.0303"/>
<text text-anchor="middle" x="365.747" y="-268.499" font-family="Times New Roman,serif" font-size="14.00">sore_at_mail_it</text>
</g>
<!-- gianuzzi_at_disi_unige_it&#45;&#45;sore_at_mail_it -->
<g id="edge4" class="edge"><title>gianuzzi_at_disi_unige_it&#45;&#45;sore_at_mail_it</title>
<path fill="none" stroke="black" d="M184.426,-242.613C223.484,-248.986 270.685,-256.688 307.136,-262.636"/>
</g>
<!-- claudia_at_mail_it -->
<g id="node4" class="node"><title>claudia_at_mail_it</title>
<ellipse fill="Gray" stroke="Gray" cx="399.527" cy="-16.2635" rx="82.5969" ry="16.0303"/>
<text text-anchor="middle" x="399.527" y="-12.5635" font-family="Times New Roman,serif" font-size="14.00">claudia_at_mail_it</text>
</g>
<!-- sore_at_mail_it&#45;&#45;claudia_at_mail_it -->
<g id="edge6" class="edge"><title>sore_at_mail_it&#45;&#45;claudia_at_mail_it</title>
<path fill="none" stroke="black" d="M367.911,-255.8C374.013,-209.573 391.301,-78.586 397.38,-32.5262"/>
</g>
<!-- gabri_at_mail_it -->
<g id="node5" class="node"><title>gabri_at_mail_it</title>
<ellipse fill="Gray" stroke="Gray" cx="267.425" cy="-537.366" rx="74.4303" ry="16.0303"/>
<text text-anchor="middle" x="267.425" y="-533.666" font-family="Times New Roman,serif" font-size="14.00">gabri_at_mail_it</text>
</g>
<!-- sore_at_mail_it&#45;&#45;gabri_at_mail_it -->
<g id="edge8" class="edge"><title>sore_at_mail_it&#45;&#45;gabri_at_mail_it</title>
<path fill="none" stroke="black" d="M359.596,-288.787C341.897,-336.52 290.986,-473.824 273.448,-521.124"/>
</g>
<!-- rebe_at_mail_it -->
<g id="node6" class="node"><title>rebe_at_mail_it</title>
<ellipse fill="Gray" stroke="Gray" cx="418.102" cy="-496.839" rx="72.1874" ry="16.0303"/>
<text text-anchor="middle" x="418.102" y="-493.139" font-family="Times New Roman,serif" font-size="14.00">rebe_at_mail_it</text>
</g>
<!-- sore_at_mail_it&#45;&#45;rebe_at_mail_it -->
<g id="edge10" class="edge"><title>sore_at_mail_it&#45;&#45;rebe_at_mail_it</title>
<path fill="none" stroke="black" d="M369.597,-288.718C379.279,-330.26 404.559,-438.728 414.247,-480.297"/>
</g>
<!-- nico_at_mail_it -->
<g id="node7" class="node"><title>nico_at_mail_it</title>
<ellipse fill="Gray" stroke="Gray" cx="560.336" cy="-383.505" rx="72.1874" ry="16.0303"/>
<text text-anchor="middle" x="560.336" y="-379.805" font-family="Times New Roman,serif" font-size="14.00">nico_at_mail_it</text>
</g>
<!-- sore_at_mail_it&#45;&#45;nico_at_mail_it -->
<g id="edge26" class="edge"><title>sore_at_mail_it&#45;&#45;nico_at_mail_it</title>
<path fill="none" stroke="black" d="M392.396,-287.443C429.555,-308.698 496.544,-347.016 533.698,-368.268"/>
</g>
<!-- ily_at_mail_it -->
<g id="node8" class="node"><title>ily_at_mail_it</title>
<ellipse fill="Gray" stroke="Gray" cx="647.914" cy="-267.21" rx="64.0209" ry="16.0303"/>
<text text-anchor="middle" x="647.914" y="-263.51" font-family="Times New Roman,serif" font-size="14.00">ily_at_mail_it</text>
</g>
<!-- sore_at_mail_it&#45;&#45;ily_at_mail_it -->
<g id="edge22" class="edge"><title>sore_at_mail_it&#45;&#45;ily_at_mail_it</title>
<path fill="none" stroke="black" d="M437.68,-270.927C482.581,-270.133 539.899,-269.12 583.341,-268.352"/>
</g>
<!-- braccio_at_mail_it -->
<g id="node9" class="node"><title>braccio_at_mail_it</title>
<ellipse fill="Gray" stroke="Gray" cx="557.4" cy="-155.54" rx="84.2802" ry="16.0303"/>
<text text-anchor="middle" x="557.4" y="-151.84" font-family="Times New Roman,serif" font-size="14.00">braccio_at_mail_it</text>
</g>
<!-- sore_at_mail_it&#45;&#45;braccio_at_mail_it -->
<g id="edge24" class="edge"><title>sore_at_mail_it&#45;&#45;braccio_at_mail_it</title>
<path fill="none" stroke="black" d="M390.802,-256.948C427.329,-234.714 494.853,-193.612 531.727,-171.167"/>
</g>
<!-- jack_at_mail_it -->
<g id="node10" class="node"><title>jack_at_mail_it</title>
<ellipse fill="Gray" stroke="Gray" cx="202.887" cy="-419.138" rx="71.127" ry="16.0303"/>
<text text-anchor="middle" x="202.887" y="-415.438" font-family="Times New Roman,serif" font-size="14.00">jack_at_mail_it</text>
</g>
<!-- sore_at_mail_it&#45;&#45;jack_at_mail_it -->
<g id="edge30" class="edge"><title>sore_at_mail_it&#45;&#45;jack_at_mail_it</title>
<path fill="none" stroke="black" d="M348.008,-288.204C316.68,-316.469 251.916,-374.902 220.604,-403.153"/>
</g>
<!-- chiara_at_mail_it -->
<g id="node11" class="node"><title>chiara_at_mail_it</title>
<ellipse fill="Gray" stroke="Gray" cx="215.925" cy="-70.3997" rx="78.2333" ry="16.0303"/>
<text text-anchor="middle" x="215.925" y="-66.6997" font-family="Times New Roman,serif" font-size="14.00">chiara_at_mail_it</text>
</g>
<!-- sore_at_mail_it&#45;&#45;chiara_at_mail_it -->
<g id="edge28" class="edge"><title>sore_at_mail_it&#45;&#45;chiara_at_mail_it</title>
<path fill="none" stroke="black" d="M353.74,-256.026C325.687,-218.241 256.098,-124.511 227.989,-86.6497"/>
</g>
<!-- rebe_at_mail_it&#45;&#45;nico_at_mail_it -->
<g id="edge12" class="edge"><title>rebe_at_mail_it&#45;&#45;nico_at_mail_it</title>
<path fill="none" stroke="black" d="M437.879,-481.081C464.901,-459.55 513.096,-421.147 540.269,-399.496"/>
</g>
<!-- rebe_at_mail_it&#45;&#45;jack_at_mail_it -->
<g id="edge20" class="edge"><title>rebe_at_mail_it&#45;&#45;jack_at_mail_it</title>
<path fill="none" stroke="black" d="M379.626,-482.948C340.453,-468.805 280.083,-447.009 241.03,-432.909"/>
</g>
<!-- nico_at_mail_it&#45;&#45;ily_at_mail_it -->
<g id="edge14" class="edge"><title>nico_at_mail_it&#45;&#45;ily_at_mail_it</title>
<path fill="none" stroke="black" d="M572.514,-367.335C589.246,-345.116 619.163,-305.389 635.84,-283.243"/>
</g>
<!-- nico_at_mail_it&#45;&#45;braccio_at_mail_it -->
<g id="edge18" class="edge"><title>nico_at_mail_it&#45;&#45;braccio_at_mail_it</title>
<path fill="none" stroke="black" d="M560.125,-367.111C559.585,-325.151 558.156,-214.224 557.613,-172.093"/>
</g>
<!-- ily_at_mail_it&#45;&#45;braccio_at_mail_it -->
<g id="edge16" class="edge"><title>ily_at_mail_it&#45;&#45;braccio_at_mail_it</title>
<path fill="none" stroke="black" d="M634.945,-251.21C617.836,-230.103 587.882,-193.146 570.638,-171.873"/>
</g>
</g>
</svg>
