<?xml version="1.0" encoding="UTF-8" standalone="no"?>
<!DOCTYPE svg PUBLIC "-//W3C//DTD SVG 1.1//EN"
 "http://www.w3.org/Graphics/SVG/1.1/DTD/svg11.dtd">
<!-- Generated by graphviz version 2.28.0 (20110507.0327)
 -->
<!-- Title: jack_at_mail_it Pages: 1 -->
<svg width="665pt" height="523pt"
 viewBox="0.00 0.00 665.35 522.75" xmlns="http://www.w3.org/2000/svg" xmlns:xlink="http://www.w3.org/1999/xlink">
<g id="graph1" class="graph" transform="scale(1 1) rotate(0) translate(4 518.753)">
<title>jack_at_mail_it</title>
<polygon fill="white" stroke="white" points="-4,5 -4,-518.753 662.348,-518.753 662.348,5 -4,5"/>
<!-- jack_at_mail_it -->
<g id="node2" class="node"><title>jack_at_mail_it</title>
<ellipse fill="Skyblue" stroke="Skyblue" cx="134.465" cy="-336.589" rx="71.127" ry="16.0303"/>
<text text-anchor="middle" x="134.465" y="-332.889" font-family="Times New Roman,serif" font-size="14.00">jack_at_mail_it</text>
</g>
<!-- matelda_at_mail_it -->
<g id="node3" class="node"><title>matelda_at_mail_it</title>
<ellipse fill="Gray" stroke="Gray" cx="250.293" cy="-129.835" rx="85.3397" ry="16.0303"/>
<text text-anchor="middle" x="250.293" y="-126.135" font-family="Times New Roman,serif" font-size="14.00">matelda_at_mail_it</text>
</g>
<!-- jack_at_mail_it&#45;&#45;matelda_at_mail_it -->
<g id="edge4" class="edge"><title>jack_at_mail_it&#45;&#45;matelda_at_mail_it</title>
<path fill="none" stroke="black" d="M143.554,-320.366C165.153,-281.811 219.369,-185.035 241.086,-146.269"/>
</g>
<!-- sore_at_mail_it -->
<g id="node4" class="node"><title>sore_at_mail_it</title>
<ellipse fill="Gray" stroke="Gray" cx="328.483" cy="-268.59" rx="72.1874" ry="16.0303"/>
<text text-anchor="middle" x="328.483" y="-264.89" font-family="Times New Roman,serif" font-size="14.00">sore_at_mail_it</text>
</g>
<!-- jack_at_mail_it&#45;&#45;sore_at_mail_it -->
<g id="edge34" class="edge"><title>jack_at_mail_it&#45;&#45;sore_at_mail_it</title>
<path fill="none" stroke="black" d="M173.727,-322.829C207.388,-311.031 255.634,-294.122 289.279,-282.33"/>
</g>
<!-- rebe_at_mail_it -->
<g id="node7" class="node"><title>rebe_at_mail_it</title>
<ellipse fill="Gray" stroke="Gray" cx="275.358" cy="-431.478" rx="72.1874" ry="16.0303"/>
<text text-anchor="middle" x="275.358" y="-427.778" font-family="Times New Roman,serif" font-size="14.00">rebe_at_mail_it</text>
</g>
<!-- jack_at_mail_it&#45;&#45;rebe_at_mail_it -->
<g id="edge36" class="edge"><title>jack_at_mail_it&#45;&#45;rebe_at_mail_it</title>
<path fill="none" stroke="black" d="M157.415,-352.046C183.615,-369.691 226.222,-398.386 252.418,-416.028"/>
</g>
<!-- matelda_at_mail_it&#45;&#45;sore_at_mail_it -->
<g id="edge6" class="edge"><title>matelda_at_mail_it&#45;&#45;sore_at_mail_it</title>
<path fill="none" stroke="black" d="M259.416,-146.023C274.401,-172.617 304.071,-225.269 319.176,-252.074"/>
</g>
<!-- nico_at_mail_it -->
<g id="node8" class="node"><title>nico_at_mail_it</title>
<ellipse fill="Gray" stroke="Gray" cx="431.645" cy="-210.1" rx="72.1874" ry="16.0303"/>
<text text-anchor="middle" x="431.645" y="-206.4" font-family="Times New Roman,serif" font-size="14.00">nico_at_mail_it</text>
</g>
<!-- matelda_at_mail_it&#45;&#45;nico_at_mail_it -->
<g id="edge32" class="edge"><title>matelda_at_mail_it&#45;&#45;nico_at_mail_it</title>
<path fill="none" stroke="black" d="M284.404,-144.932C317.135,-159.419 366.237,-181.151 398.605,-195.477"/>
</g>
<!-- ily_at_mail_it -->
<g id="node9" class="node"><title>ily_at_mail_it</title>
<ellipse fill="Gray" stroke="Gray" cx="474.446" cy="-74.9566" rx="64.0209" ry="16.0303"/>
<text text-anchor="middle" x="474.446" y="-71.2566" font-family="Times New Roman,serif" font-size="14.00">ily_at_mail_it</text>
</g>
<!-- matelda_at_mail_it&#45;&#45;ily_at_mail_it -->
<g id="edge30" class="edge"><title>matelda_at_mail_it&#45;&#45;ily_at_mail_it</title>
<path fill="none" stroke="black" d="M302.847,-116.968C340.761,-107.686 391.478,-95.2692 427.928,-86.3453"/>
</g>
<!-- claudia_at_mail_it -->
<g id="node5" class="node"><title>claudia_at_mail_it</title>
<ellipse fill="Gray" stroke="Gray" cx="428.111" cy="-498.489" rx="82.5969" ry="16.0303"/>
<text text-anchor="middle" x="428.111" y="-494.789" font-family="Times New Roman,serif" font-size="14.00">claudia_at_mail_it</text>
</g>
<!-- sore_at_mail_it&#45;&#45;claudia_at_mail_it -->
<g id="edge8" class="edge"><title>sore_at_mail_it&#45;&#45;claudia_at_mail_it</title>
<path fill="none" stroke="black" d="M335.648,-285.123C354.03,-327.542 402.7,-439.852 421.011,-482.105"/>
</g>
<!-- gabri_at_mail_it -->
<g id="node6" class="node"><title>gabri_at_mail_it</title>
<ellipse fill="Gray" stroke="Gray" cx="582.871" cy="-332.311" rx="74.4303" ry="16.0303"/>
<text text-anchor="middle" x="582.871" y="-328.611" font-family="Times New Roman,serif" font-size="14.00">gabri_at_mail_it</text>
</g>
<!-- sore_at_mail_it&#45;&#45;gabri_at_mail_it -->
<g id="edge10" class="edge"><title>sore_at_mail_it&#45;&#45;gabri_at_mail_it</title>
<path fill="none" stroke="black" d="M376.93,-280.725C421.907,-291.991 488.542,-308.683 533.738,-320.004"/>
</g>
<!-- sore_at_mail_it&#45;&#45;rebe_at_mail_it -->
<g id="edge12" class="edge"><title>sore_at_mail_it&#45;&#45;rebe_at_mail_it</title>
<path fill="none" stroke="black" d="M323.097,-285.105C312.915,-316.325 290.952,-383.666 280.759,-414.919"/>
</g>
<!-- sore_at_mail_it&#45;&#45;nico_at_mail_it -->
<g id="edge26" class="edge"><title>sore_at_mail_it&#45;&#45;nico_at_mail_it</title>
<path fill="none" stroke="black" d="M355.318,-253.375C370.601,-244.71 389.683,-233.891 404.944,-225.239"/>
</g>
<!-- sore_at_mail_it&#45;&#45;ily_at_mail_it -->
<g id="edge22" class="edge"><title>sore_at_mail_it&#45;&#45;ily_at_mail_it</title>
<path fill="none" stroke="black" d="M340.677,-252.414C368.221,-215.874 434.977,-127.316 462.39,-90.9503"/>
</g>
<!-- braccio_at_mail_it -->
<g id="node10" class="node"><title>braccio_at_mail_it</title>
<ellipse fill="Gray" stroke="Gray" cx="354.45" cy="-16.2635" rx="84.2802" ry="16.0303"/>
<text text-anchor="middle" x="354.45" y="-12.5635" font-family="Times New Roman,serif" font-size="14.00">braccio_at_mail_it</text>
</g>
<!-- sore_at_mail_it&#45;&#45;braccio_at_mail_it -->
<g id="edge24" class="edge"><title>sore_at_mail_it&#45;&#45;braccio_at_mail_it</title>
<path fill="none" stroke="black" d="M330.187,-252.034C334.903,-206.204 348.091,-78.0603 352.774,-32.5522"/>
</g>
<!-- chiara_at_mail_it -->
<g id="node11" class="node"><title>chiara_at_mail_it</title>
<ellipse fill="Gray" stroke="Gray" cx="78.2444" cy="-169.812" rx="78.2333" ry="16.0303"/>
<text text-anchor="middle" x="78.2444" y="-166.112" font-family="Times New Roman,serif" font-size="14.00">chiara_at_mail_it</text>
</g>
<!-- sore_at_mail_it&#45;&#45;chiara_at_mail_it -->
<g id="edge28" class="edge"><title>sore_at_mail_it&#45;&#45;chiara_at_mail_it</title>
<path fill="none" stroke="black" d="M292.63,-254.437C245.33,-235.766 162.515,-203.076 114.845,-184.259"/>
</g>
<!-- rebe_at_mail_it&#45;&#45;nico_at_mail_it -->
<g id="edge14" class="edge"><title>rebe_at_mail_it&#45;&#45;nico_at_mail_it</title>
<path fill="none" stroke="black" d="M286.851,-415.2C315.753,-374.26 391.216,-267.368 420.136,-226.403"/>
</g>
<!-- nico_at_mail_it&#45;&#45;ily_at_mail_it -->
<g id="edge16" class="edge"><title>nico_at_mail_it&#45;&#45;ily_at_mail_it</title>
<path fill="none" stroke="black" d="M436.808,-193.799C445.034,-167.824 461.027,-117.327 469.265,-91.3159"/>
</g>
<!-- nico_at_mail_it&#45;&#45;braccio_at_mail_it -->
<g id="edge20" class="edge"><title>nico_at_mail_it&#45;&#45;braccio_at_mail_it</title>
<path fill="none" stroke="black" d="M425.063,-193.574C410.479,-156.953 375.584,-69.3304 361.015,-32.7481"/>
</g>
<!-- ily_at_mail_it&#45;&#45;braccio_at_mail_it -->
<g id="edge18" class="edge"><title>ily_at_mail_it&#45;&#45;braccio_at_mail_it</title>
<path fill="none" stroke="black" d="M444.784,-60.4482C426.739,-51.622 403.727,-40.3659 385.445,-31.4237"/>
</g>
</g>
</svg>
