<?xml version="1.0" encoding="UTF-8" standalone="no"?>
<!DOCTYPE svg PUBLIC "-//W3C//DTD SVG 1.1//EN"
 "http://www.w3.org/Graphics/SVG/1.1/DTD/svg11.dtd">
<!-- Generated by graphviz version 2.28.0 (20110507.0327)
 -->
<!-- Title: sore_at_mail_it Pages: 1 -->
<svg width="716pt" height="499pt"
 viewBox="0.00 0.00 715.54 499.05" xmlns="http://www.w3.org/2000/svg" xmlns:xlink="http://www.w3.org/1999/xlink">
<g id="graph1" class="graph" transform="scale(1 1) rotate(0) translate(4 495.051)">
<title>sore_at_mail_it</title>
<polygon fill="white" stroke="white" points="-4,5 -4,-495.051 712.537,-495.051 712.537,5 -4,5"/>
<!-- sore_at_mail_it -->
<g id="node2" class="node"><title>sore_at_mail_it</title>
<ellipse fill="Skyblue" stroke="Skyblue" cx="346.303" cy="-245.788" rx="72.1874" ry="16.0303"/>
<text text-anchor="middle" x="346.303" y="-242.088" font-family="Times New Roman,serif" font-size="14.00">sore_at_mail_it</text>
</g>
<!-- matelda_at_mail_it -->
<g id="node3" class="node"><title>matelda_at_mail_it</title>
<ellipse fill="Gray" stroke="Gray" cx="185.79" cy="-412.727" rx="85.3397" ry="16.0303"/>
<text text-anchor="middle" x="185.79" y="-409.027" font-family="Times New Roman,serif" font-size="14.00">matelda_at_mail_it</text>
</g>
<!-- sore_at_mail_it&#45;&#45;matelda_at_mail_it -->
<g id="edge4" class="edge"><title>sore_at_mail_it&#45;&#45;matelda_at_mail_it</title>
<path fill="none" stroke="black" d="M330.913,-261.795C300.31,-293.622 232.126,-364.536 201.37,-396.523"/>
</g>
<!-- claudia_at_mail_it -->
<g id="node4" class="node"><title>claudia_at_mail_it</title>
<ellipse fill="Gray" stroke="Gray" cx="499.209" cy="-41.779" rx="82.5969" ry="16.0303"/>
<text text-anchor="middle" x="499.209" y="-38.079" font-family="Times New Roman,serif" font-size="14.00">claudia_at_mail_it</text>
</g>
<!-- sore_at_mail_it&#45;&#45;claudia_at_mail_it -->
<g id="edge22" class="edge"><title>sore_at_mail_it&#45;&#45;claudia_at_mail_it</title>
<path fill="none" stroke="black" d="M358.558,-229.438C387.259,-191.144 458.56,-96.0132 487.108,-57.9237"/>
</g>
<!-- gabri_at_mail_it -->
<g id="node5" class="node"><title>gabri_at_mail_it</title>
<ellipse fill="Gray" stroke="Gray" cx="534.556" cy="-446.398" rx="74.4303" ry="16.0303"/>
<text text-anchor="middle" x="534.556" y="-442.698" font-family="Times New Roman,serif" font-size="14.00">gabri_at_mail_it</text>
</g>
<!-- sore_at_mail_it&#45;&#45;gabri_at_mail_it -->
<g id="edge24" class="edge"><title>sore_at_mail_it&#45;&#45;gabri_at_mail_it</title>
<path fill="none" stroke="black" d="M361.391,-261.866C396.639,-299.428 484.078,-392.606 519.397,-430.244"/>
</g>
<!-- rebe_at_mail_it -->
<g id="node6" class="node"><title>rebe_at_mail_it</title>
<ellipse fill="Gray" stroke="Gray" cx="232.758" cy="-474.787" rx="72.1874" ry="16.0303"/>
<text text-anchor="middle" x="232.758" y="-471.087" font-family="Times New Roman,serif" font-size="14.00">rebe_at_mail_it</text>
</g>
<!-- sore_at_mail_it&#45;&#45;rebe_at_mail_it -->
<g id="edge26" class="edge"><title>sore_at_mail_it&#45;&#45;rebe_at_mail_it</title>
<path fill="none" stroke="black" d="M338.137,-262.257C317.187,-304.509 261.718,-416.38 240.849,-458.468"/>
</g>
<!-- nico_at_mail_it -->
<g id="node7" class="node"><title>nico_at_mail_it</title>
<ellipse fill="Gray" stroke="Gray" cx="194.054" cy="-249.608" rx="72.1874" ry="16.0303"/>
<text text-anchor="middle" x="194.054" y="-245.908" font-family="Times New Roman,serif" font-size="14.00">nico_at_mail_it</text>
</g>
<!-- sore_at_mail_it&#45;&#45;nico_at_mail_it -->
<g id="edge32" class="edge"><title>sore_at_mail_it&#45;&#45;nico_at_mail_it</title>
<path fill="none" stroke="black" d="M274.637,-247.586C271.706,-247.66 268.766,-247.734 265.835,-247.807"/>
</g>
<!-- ily_at_mail_it -->
<g id="node8" class="node"><title>ily_at_mail_it</title>
<ellipse fill="Gray" stroke="Gray" cx="376.328" cy="-359.584" rx="64.0209" ry="16.0303"/>
<text text-anchor="middle" x="376.328" y="-355.884" font-family="Times New Roman,serif" font-size="14.00">ily_at_mail_it</text>
</g>
<!-- sore_at_mail_it&#45;&#45;ily_at_mail_it -->
<g id="edge28" class="edge"><title>sore_at_mail_it&#45;&#45;ily_at_mail_it</title>
<path fill="none" stroke="black" d="M350.605,-262.092C356.313,-283.725 366.331,-321.693 372.035,-343.31"/>
</g>
<!-- braccio_at_mail_it -->
<g id="node9" class="node"><title>braccio_at_mail_it</title>
<ellipse fill="Gray" stroke="Gray" cx="329.874" cy="-97.2108" rx="84.2802" ry="16.0303"/>
<text text-anchor="middle" x="329.874" y="-93.5108" font-family="Times New Roman,serif" font-size="14.00">braccio_at_mail_it</text>
</g>
<!-- sore_at_mail_it&#45;&#45;braccio_at_mail_it -->
<g id="edge30" class="edge"><title>sore_at_mail_it&#45;&#45;braccio_at_mail_it</title>
<path fill="none" stroke="black" d="M344.482,-229.32C341.324,-200.76 334.867,-142.364 331.704,-113.753"/>
</g>
<!-- jack_at_mail_it -->
<g id="node10" class="node"><title>jack_at_mail_it</title>
<ellipse fill="Gray" stroke="Gray" cx="71.2089" cy="-322.17" rx="71.127" ry="16.0303"/>
<text text-anchor="middle" x="71.2089" y="-318.47" font-family="Times New Roman,serif" font-size="14.00">jack_at_mail_it</text>
</g>
<!-- sore_at_mail_it&#45;&#45;jack_at_mail_it -->
<g id="edge36" class="edge"><title>sore_at_mail_it&#45;&#45;jack_at_mail_it</title>
<path fill="none" stroke="black" d="M300.568,-258.487C249.539,-272.655 167.483,-295.439 116.595,-309.568"/>
</g>
<!-- chiara_at_mail_it -->
<g id="node11" class="node"><title>chiara_at_mail_it</title>
<ellipse fill="Gray" stroke="Gray" cx="185.265" cy="-16.2635" rx="78.2333" ry="16.0303"/>
<text text-anchor="middle" x="185.265" y="-12.5635" font-family="Times New Roman,serif" font-size="14.00">chiara_at_mail_it</text>
</g>
<!-- sore_at_mail_it&#45;&#45;chiara_at_mail_it -->
<g id="edge34" class="edge"><title>sore_at_mail_it&#45;&#45;chiara_at_mail_it</title>
<path fill="none" stroke="black" d="M334.979,-229.648C305.411,-187.506 226.13,-74.508 196.576,-32.3853"/>
</g>
<!-- gianuzzi_at_disi_unige_it -->
<g id="node12" class="node"><title>gianuzzi_at_disi_unige_it</title>
<ellipse fill="Gray" stroke="Gray" cx="597.383" cy="-232.928" rx="109.964" ry="16.0303"/>
<text text-anchor="middle" x="597.383" y="-229.228" font-family="Times New Roman,serif" font-size="14.00">gianuzzi_at_disi_unige_it</text>
</g>
<!-- sore_at_mail_it&#45;&#45;gianuzzi_at_disi_unige_it -->
<g id="edge38" class="edge"><title>sore_at_mail_it&#45;&#45;gianuzzi_at_disi_unige_it</title>
<path fill="none" stroke="black" d="M416.911,-242.172C440.554,-240.961 467.434,-239.584 493.094,-238.27"/>
</g>
<!-- matelda_at_mail_it&#45;&#45;nico_at_mail_it -->
<g id="edge18" class="edge"><title>matelda_at_mail_it&#45;&#45;nico_at_mail_it</title>
<path fill="none" stroke="black" d="M186.628,-396.188C188.212,-364.924 191.628,-297.488 193.213,-266.19"/>
</g>
<!-- matelda_at_mail_it&#45;&#45;ily_at_mail_it -->
<g id="edge6" class="edge"><title>matelda_at_mail_it&#45;&#45;ily_at_mail_it</title>
<path fill="none" stroke="black" d="M234.364,-399.179C264.795,-390.692 303.671,-379.849 333.044,-371.657"/>
</g>
<!-- matelda_at_mail_it&#45;&#45;jack_at_mail_it -->
<g id="edge20" class="edge"><title>matelda_at_mail_it&#45;&#45;jack_at_mail_it</title>
<path fill="none" stroke="black" d="M165.569,-396.746C144.625,-380.193 112.097,-354.485 91.2278,-337.991"/>
</g>
<!-- rebe_at_mail_it&#45;&#45;jack_at_mail_it -->
<g id="edge14" class="edge"><title>rebe_at_mail_it&#45;&#45;jack_at_mail_it</title>
<path fill="none" stroke="black" d="M215.774,-458.743C184.667,-429.355 118.902,-367.227 87.9645,-337.999"/>
</g>
<!-- nico_at_mail_it&#45;&#45;rebe_at_mail_it -->
<g id="edge12" class="edge"><title>nico_at_mail_it&#45;&#45;rebe_at_mail_it</title>
<path fill="none" stroke="black" d="M196.9,-266.166C204.075,-307.91 222.837,-417.067 229.96,-458.509"/>
</g>
<!-- ily_at_mail_it&#45;&#45;nico_at_mail_it -->
<g id="edge16" class="edge"><title>ily_at_mail_it&#45;&#45;nico_at_mail_it</title>
<path fill="none" stroke="black" d="M351.366,-344.523C316.753,-323.639 254.511,-286.085 219.594,-265.018"/>
</g>
<!-- ily_at_mail_it&#45;&#45;braccio_at_mail_it -->
<g id="edge8" class="edge"><title>ily_at_mail_it&#45;&#45;braccio_at_mail_it</title>
<path fill="none" stroke="black" d="M373.423,-343.172C365.08,-296.053 341.12,-160.728 332.779,-113.617"/>
</g>
<!-- braccio_at_mail_it&#45;&#45;nico_at_mail_it -->
<g id="edge10" class="edge"><title>braccio_at_mail_it&#45;&#45;nico_at_mail_it</title>
<path fill="none" stroke="black" d="M315.339,-113.52C289.198,-142.852 234.55,-204.17 208.484,-233.416"/>
</g>
</g>
</svg>
