<?xml version="1.0" encoding="UTF-8" standalone="no"?>
<!DOCTYPE svg PUBLIC "-//W3C//DTD SVG 1.1//EN"
 "http://www.w3.org/Graphics/SVG/1.1/DTD/svg11.dtd">
<!-- Generated by graphviz version 2.28.0 (20110507.0327)
 -->
<!-- Title: chiara_at_mail_it Pages: 1 -->
<svg width="699pt" height="576pt"
 viewBox="0.00 0.00 698.79 576.13" xmlns="http://www.w3.org/2000/svg" xmlns:xlink="http://www.w3.org/1999/xlink">
<g id="graph1" class="graph" transform="scale(1 1) rotate(0) translate(4 572.126)">
<title>chiara_at_mail_it</title>
<polygon fill="white" stroke="white" points="-4,5 -4,-572.126 695.791,-572.126 695.791,5 -4,5"/>
<!-- chiara_at_mail_it -->
<g id="node2" class="node"><title>chiara_at_mail_it</title>
<ellipse fill="Skyblue" stroke="Skyblue" cx="116.572" cy="-426.679" rx="78.2333" ry="16.0303"/>
<text text-anchor="middle" x="116.572" y="-422.979" font-family="Times New Roman,serif" font-size="14.00">chiara_at_mail_it</text>
</g>
<!-- sore_at_mail_it -->
<g id="node3" class="node"><title>sore_at_mail_it</title>
<ellipse fill="Green" stroke="Green" cx="336.722" cy="-257.828" rx="72.1874" ry="16.0303"/>
<text text-anchor="middle" x="336.722" y="-254.128" font-family="Times New Roman,serif" font-size="14.00">sore_at_mail_it</text>
</g>
<!-- chiara_at_mail_it&#45;&#45;sore_at_mail_it -->
<g id="edge4" class="edge"><title>chiara_at_mail_it&#45;&#45;sore_at_mail_it</title>
<path fill="none" stroke="black" d="M137.283,-410.794C179.349,-378.53 274.341,-305.672 316.226,-273.548"/>
</g>
<!-- matelda_at_mail_it -->
<g id="node4" class="node"><title>matelda_at_mail_it</title>
<ellipse fill="Gray" stroke="Gray" cx="502.406" cy="-231.311" rx="85.3397" ry="16.0303"/>
<text text-anchor="middle" x="502.406" y="-227.611" font-family="Times New Roman,serif" font-size="14.00">matelda_at_mail_it</text>
</g>
<!-- sore_at_mail_it&#45;&#45;matelda_at_mail_it -->
<g id="edge6" class="edge"><title>sore_at_mail_it&#45;&#45;matelda_at_mail_it</title>
<path fill="none" stroke="black" d="M395.602,-248.404C408.996,-246.261 423.304,-243.971 436.953,-241.787"/>
</g>
<!-- ily_at_mail_it -->
<g id="node5" class="node"><title>ily_at_mail_it</title>
<ellipse fill="Gray" stroke="Gray" cx="365.67" cy="-444.548" rx="64.0209" ry="16.0303"/>
<text text-anchor="middle" x="365.67" y="-440.848" font-family="Times New Roman,serif" font-size="14.00">ily_at_mail_it</text>
</g>
<!-- sore_at_mail_it&#45;&#45;ily_at_mail_it -->
<g id="edge30" class="edge"><title>sore_at_mail_it&#45;&#45;ily_at_mail_it</title>
<path fill="none" stroke="black" d="M339.291,-274.398C344.798,-309.92 357.683,-393.032 363.148,-428.281"/>
</g>
<!-- braccio_at_mail_it -->
<g id="node6" class="node"><title>braccio_at_mail_it</title>
<ellipse fill="Gray" stroke="Gray" cx="459.23" cy="-551.863" rx="84.2802" ry="16.0303"/>
<text text-anchor="middle" x="459.23" y="-548.163" font-family="Times New Roman,serif" font-size="14.00">braccio_at_mail_it</text>
</g>
<!-- sore_at_mail_it&#45;&#45;braccio_at_mail_it -->
<g id="edge32" class="edge"><title>sore_at_mail_it&#45;&#45;braccio_at_mail_it</title>
<path fill="none" stroke="black" d="M343.483,-274.055C364.851,-325.342 430.791,-483.604 452.339,-535.323"/>
</g>
<!-- nico_at_mail_it -->
<g id="node7" class="node"><title>nico_at_mail_it</title>
<ellipse fill="Gray" stroke="Gray" cx="573.48" cy="-388.136" rx="72.1874" ry="16.0303"/>
<text text-anchor="middle" x="573.48" y="-384.436" font-family="Times New Roman,serif" font-size="14.00">nico_at_mail_it</text>
</g>
<!-- sore_at_mail_it&#45;&#45;nico_at_mail_it -->
<g id="edge34" class="edge"><title>sore_at_mail_it&#45;&#45;nico_at_mail_it</title>
<path fill="none" stroke="black" d="M364.344,-273.031C409.965,-298.14 500.529,-347.985 546.034,-373.03"/>
</g>
<!-- rebe_at_mail_it -->
<g id="node8" class="node"><title>rebe_at_mail_it</title>
<ellipse fill="Gray" stroke="Gray" cx="618.728" cy="-156.511" rx="72.1874" ry="16.0303"/>
<text text-anchor="middle" x="618.728" y="-152.811" font-family="Times New Roman,serif" font-size="14.00">rebe_at_mail_it</text>
</g>
<!-- sore_at_mail_it&#45;&#45;rebe_at_mail_it -->
<g id="edge28" class="edge"><title>sore_at_mail_it&#45;&#45;rebe_at_mail_it</title>
<path fill="none" stroke="black" d="M375.342,-243.952C429.195,-224.605 526.278,-189.726 580.123,-170.381"/>
</g>
<!-- jack_at_mail_it -->
<g id="node9" class="node"><title>jack_at_mail_it</title>
<ellipse fill="Gray" stroke="Gray" cx="467.113" cy="-23.7918" rx="71.127" ry="16.0303"/>
<text text-anchor="middle" x="467.113" y="-20.0918" font-family="Times New Roman,serif" font-size="14.00">jack_at_mail_it</text>
</g>
<!-- sore_at_mail_it&#45;&#45;jack_at_mail_it -->
<g id="edge36" class="edge"><title>sore_at_mail_it&#45;&#45;jack_at_mail_it</title>
<path fill="none" stroke="black" d="M345.89,-241.371C369.831,-198.4 434.025,-83.1812 457.954,-40.2306"/>
</g>
<!-- claudia_at_mail_it -->
<g id="node10" class="node"><title>claudia_at_mail_it</title>
<ellipse fill="Gray" stroke="Gray" cx="82.3657" cy="-199.873" rx="82.5969" ry="16.0303"/>
<text text-anchor="middle" x="82.3657" y="-196.173" font-family="Times New Roman,serif" font-size="14.00">claudia_at_mail_it</text>
</g>
<!-- sore_at_mail_it&#45;&#45;claudia_at_mail_it -->
<g id="edge24" class="edge"><title>sore_at_mail_it&#45;&#45;claudia_at_mail_it</title>
<path fill="none" stroke="black" d="M285.86,-246.239C242.657,-236.395 180.81,-222.303 136.656,-212.243"/>
</g>
<!-- gabri_at_mail_it -->
<g id="node11" class="node"><title>gabri_at_mail_it</title>
<ellipse fill="Gray" stroke="Gray" cx="213.932" cy="-16.2635" rx="74.4303" ry="16.0303"/>
<text text-anchor="middle" x="213.932" y="-12.5635" font-family="Times New Roman,serif" font-size="14.00">gabri_at_mail_it</text>
</g>
<!-- sore_at_mail_it&#45;&#45;gabri_at_mail_it -->
<g id="edge26" class="edge"><title>sore_at_mail_it&#45;&#45;gabri_at_mail_it</title>
<path fill="none" stroke="black" d="M328.474,-241.603C306.159,-197.702 244.766,-76.9237 222.305,-32.7357"/>
</g>
<!-- matelda_at_mail_it&#45;&#45;ily_at_mail_it -->
<g id="edge8" class="edge"><title>matelda_at_mail_it&#45;&#45;ily_at_mail_it</title>
<path fill="none" stroke="black" d="M491.904,-247.69C466.389,-287.479 401.379,-388.861 376.021,-428.406"/>
</g>
<!-- matelda_at_mail_it&#45;&#45;nico_at_mail_it -->
<g id="edge20" class="edge"><title>matelda_at_mail_it&#45;&#45;nico_at_mail_it</title>
<path fill="none" stroke="black" d="M509.878,-247.798C523.564,-277.996 552.497,-341.837 566.109,-371.871"/>
</g>
<!-- matelda_at_mail_it&#45;&#45;jack_at_mail_it -->
<g id="edge22" class="edge"><title>matelda_at_mail_it&#45;&#45;jack_at_mail_it</title>
<path fill="none" stroke="black" d="M499.637,-215.028C493.056,-176.331 476.536,-79.1961 469.918,-40.287"/>
</g>
<!-- ily_at_mail_it&#45;&#45;braccio_at_mail_it -->
<g id="edge10" class="edge"><title>ily_at_mail_it&#45;&#45;braccio_at_mail_it</title>
<path fill="none" stroke="black" d="M379.88,-460.847C397.567,-481.134 427.587,-515.567 445.194,-535.762"/>
</g>
<!-- ily_at_mail_it&#45;&#45;nico_at_mail_it -->
<g id="edge18" class="edge"><title>ily_at_mail_it&#45;&#45;nico_at_mail_it</title>
<path fill="none" stroke="black" d="M409.488,-432.653C444.021,-423.279 492.046,-410.242 527.2,-400.699"/>
</g>
<!-- braccio_at_mail_it&#45;&#45;nico_at_mail_it -->
<g id="edge12" class="edge"><title>braccio_at_mail_it&#45;&#45;nico_at_mail_it</title>
<path fill="none" stroke="black" d="M470.603,-535.565C492.502,-504.182 540.291,-435.699 562.154,-404.368"/>
</g>
<!-- nico_at_mail_it&#45;&#45;rebe_at_mail_it -->
<g id="edge14" class="edge"><title>nico_at_mail_it&#45;&#45;rebe_at_mail_it</title>
<path fill="none" stroke="black" d="M576.662,-371.849C584.97,-329.32 607.246,-215.289 615.55,-172.78"/>
</g>
<!-- rebe_at_mail_it&#45;&#45;jack_at_mail_it -->
<g id="edge16" class="edge"><title>rebe_at_mail_it&#45;&#45;jack_at_mail_it</title>
<path fill="none" stroke="black" d="M600.44,-140.502C571.299,-114.993 514.648,-65.4025 485.466,-39.8576"/>
</g>
</g>
</svg>
