<?xml version="1.0" encoding="UTF-8" standalone="no"?>
<!DOCTYPE svg PUBLIC "-//W3C//DTD SVG 1.1//EN"
 "http://www.w3.org/Graphics/SVG/1.1/DTD/svg11.dtd">
<!-- Generated by graphviz version 2.28.0 (20110507.0327)
 -->
<!-- Title: nico_at_mail_it Pages: 1 -->
<svg width="776pt" height="659pt"
 viewBox="0.00 0.00 776.05 659.34" xmlns="http://www.w3.org/2000/svg" xmlns:xlink="http://www.w3.org/1999/xlink">
<g id="graph1" class="graph" transform="scale(1 1) rotate(0) translate(4 655.345)">
<title>nico_at_mail_it</title>
<polygon fill="white" stroke="white" points="-4,5 -4,-655.345 773.054,-655.345 773.054,5 -4,5"/>
<!-- nico_at_mail_it -->
<g id="node2" class="node"><title>nico_at_mail_it</title>
<ellipse fill="Skyblue" stroke="Skyblue" cx="274.682" cy="-218.293" rx="72.1874" ry="16.0303"/>
<text text-anchor="middle" x="274.682" y="-214.593" font-family="Times New Roman,serif" font-size="14.00">nico_at_mail_it</text>
</g>
<!-- matelda_at_mail_it -->
<g id="node3" class="node"><title>matelda_at_mail_it</title>
<ellipse fill="Gray" stroke="Gray" cx="305.318" cy="-462.817" rx="85.3397" ry="16.0303"/>
<text text-anchor="middle" x="305.318" y="-459.117" font-family="Times New Roman,serif" font-size="14.00">matelda_at_mail_it</text>
</g>
<!-- nico_at_mail_it&#45;&#45;matelda_at_mail_it -->
<g id="edge4" class="edge"><title>nico_at_mail_it&#45;&#45;matelda_at_mail_it</title>
<path fill="none" stroke="black" d="M276.74,-234.717C282.321,-279.262 297.699,-402.003 303.269,-446.465"/>
</g>
<!-- sore_at_mail_it -->
<g id="node4" class="node"><title>sore_at_mail_it</title>
<ellipse fill="Gray" stroke="Gray" cx="388.919" cy="-330.306" rx="72.1874" ry="16.0303"/>
<text text-anchor="middle" x="388.919" y="-326.606" font-family="Times New Roman,serif" font-size="14.00">sore_at_mail_it</text>
</g>
<!-- nico_at_mail_it&#45;&#45;sore_at_mail_it -->
<g id="edge30" class="edge"><title>nico_at_mail_it&#45;&#45;sore_at_mail_it</title>
<path fill="none" stroke="black" d="M291.049,-234.342C312.766,-255.636 350.881,-293.009 372.582,-314.287"/>
</g>
<!-- rebe_at_mail_it -->
<g id="node7" class="node"><title>rebe_at_mail_it</title>
<ellipse fill="Gray" stroke="Gray" cx="139.633" cy="-492.864" rx="72.1874" ry="16.0303"/>
<text text-anchor="middle" x="139.633" y="-489.164" font-family="Times New Roman,serif" font-size="14.00">rebe_at_mail_it</text>
</g>
<!-- nico_at_mail_it&#45;&#45;rebe_at_mail_it -->
<g id="edge32" class="edge"><title>nico_at_mail_it&#45;&#45;rebe_at_mail_it</title>
<path fill="none" stroke="black" d="M266.639,-234.647C242.619,-283.482 171.599,-427.873 147.634,-476.596"/>
</g>
<!-- ily_at_mail_it -->
<g id="node8" class="node"><title>ily_at_mail_it</title>
<ellipse fill="Gray" stroke="Gray" cx="543.728" cy="-240.336" rx="64.0209" ry="16.0303"/>
<text text-anchor="middle" x="543.728" y="-236.636" font-family="Times New Roman,serif" font-size="14.00">ily_at_mail_it</text>
</g>
<!-- nico_at_mail_it&#45;&#45;ily_at_mail_it -->
<g id="edge34" class="edge"><title>nico_at_mail_it&#45;&#45;ily_at_mail_it</title>
<path fill="none" stroke="black" d="M342.574,-223.855C385.539,-227.376 440.635,-231.89 482.299,-235.303"/>
</g>
<!-- braccio_at_mail_it -->
<g id="node9" class="node"><title>braccio_at_mail_it</title>
<ellipse fill="Gray" stroke="Gray" cx="486.043" cy="-54.6245" rx="84.2802" ry="16.0303"/>
<text text-anchor="middle" x="486.043" y="-50.9245" font-family="Times New Roman,serif" font-size="14.00">braccio_at_mail_it</text>
</g>
<!-- nico_at_mail_it&#45;&#45;braccio_at_mail_it -->
<g id="edge36" class="edge"><title>nico_at_mail_it&#45;&#45;braccio_at_mail_it</title>
<path fill="none" stroke="black" d="M294.948,-202.6C335.245,-171.396 425.028,-101.872 465.528,-70.5107"/>
</g>
<!-- matelda_at_mail_it&#45;&#45;sore_at_mail_it -->
<g id="edge6" class="edge"><title>matelda_at_mail_it&#45;&#45;sore_at_mail_it</title>
<path fill="none" stroke="black" d="M315.569,-446.569C331.614,-421.136 362.487,-372.202 378.584,-346.688"/>
</g>
<!-- matelda_at_mail_it&#45;&#45;ily_at_mail_it -->
<g id="edge26" class="edge"><title>matelda_at_mail_it&#45;&#45;ily_at_mail_it</title>
<path fill="none" stroke="black" d="M322.464,-446.817C366.452,-405.767 482.921,-297.081 526.738,-256.191"/>
</g>
<!-- jack_at_mail_it -->
<g id="node10" class="node"><title>jack_at_mail_it</title>
<ellipse fill="Gray" stroke="Gray" cx="71.2089" cy="-339.001" rx="71.127" ry="16.0303"/>
<text text-anchor="middle" x="71.2089" y="-335.301" font-family="Times New Roman,serif" font-size="14.00">jack_at_mail_it</text>
</g>
<!-- matelda_at_mail_it&#45;&#45;jack_at_mail_it -->
<g id="edge28" class="edge"><title>matelda_at_mail_it&#45;&#45;jack_at_mail_it</title>
<path fill="none" stroke="black" d="M276.141,-447.386C230.912,-423.465 144.432,-377.727 99.6529,-354.044"/>
</g>
<!-- claudia_at_mail_it -->
<g id="node5" class="node"><title>claudia_at_mail_it</title>
<ellipse fill="Gray" stroke="Gray" cx="489.49" cy="-635.082" rx="82.5969" ry="16.0303"/>
<text text-anchor="middle" x="489.49" y="-631.382" font-family="Times New Roman,serif" font-size="14.00">claudia_at_mail_it</text>
</g>
<!-- sore_at_mail_it&#45;&#45;claudia_at_mail_it -->
<g id="edge8" class="edge"><title>sore_at_mail_it&#45;&#45;claudia_at_mail_it</title>
<path fill="none" stroke="black" d="M394.326,-346.693C411.788,-399.611 466.556,-565.58 484.057,-618.614"/>
</g>
<!-- gabri_at_mail_it -->
<g id="node6" class="node"><title>gabri_at_mail_it</title>
<ellipse fill="Gray" stroke="Gray" cx="693.578" cy="-411.96" rx="74.4303" ry="16.0303"/>
<text text-anchor="middle" x="693.578" y="-408.26" font-family="Times New Roman,serif" font-size="14.00">gabri_at_mail_it</text>
</g>
<!-- sore_at_mail_it&#45;&#45;gabri_at_mail_it -->
<g id="edge10" class="edge"><title>sore_at_mail_it&#45;&#45;gabri_at_mail_it</title>
<path fill="none" stroke="black" d="M435.521,-342.797C492.612,-358.098 588.799,-383.877 646.228,-399.269"/>
</g>
<!-- sore_at_mail_it&#45;&#45;rebe_at_mail_it -->
<g id="edge12" class="edge"><title>sore_at_mail_it&#45;&#45;rebe_at_mail_it</title>
<path fill="none" stroke="black" d="M365.016,-345.893C317.367,-376.965 211.052,-446.292 163.463,-477.324"/>
</g>
<!-- sore_at_mail_it&#45;&#45;ily_at_mail_it -->
<g id="edge16" class="edge"><title>sore_at_mail_it&#45;&#45;ily_at_mail_it</title>
<path fill="none" stroke="black" d="M415.18,-315.044C443.82,-298.399 489.369,-271.928 517.855,-255.373"/>
</g>
<!-- sore_at_mail_it&#45;&#45;braccio_at_mail_it -->
<g id="edge20" class="edge"><title>sore_at_mail_it&#45;&#45;braccio_at_mail_it</title>
<path fill="none" stroke="black" d="M394.703,-313.887C411.978,-264.854 463.054,-119.878 480.289,-70.958"/>
</g>
<!-- sore_at_mail_it&#45;&#45;jack_at_mail_it -->
<g id="edge24" class="edge"><title>sore_at_mail_it&#45;&#45;jack_at_mail_it</title>
<path fill="none" stroke="black" d="M317.222,-332.268C264.879,-333.701 194.25,-335.634 142.097,-337.061"/>
</g>
<!-- chiara_at_mail_it -->
<g id="node11" class="node"><title>chiara_at_mail_it</title>
<ellipse fill="Gray" stroke="Gray" cx="226.626" cy="-16.2635" rx="78.2333" ry="16.0303"/>
<text text-anchor="middle" x="226.626" y="-12.5635" font-family="Times New Roman,serif" font-size="14.00">chiara_at_mail_it</text>
</g>
<!-- sore_at_mail_it&#45;&#45;chiara_at_mail_it -->
<g id="edge22" class="edge"><title>sore_at_mail_it&#45;&#45;chiara_at_mail_it</title>
<path fill="none" stroke="black" d="M380.422,-313.864C352.377,-259.596 262.961,-86.5726 235.039,-32.5428"/>
</g>
<!-- rebe_at_mail_it&#45;&#45;jack_at_mail_it -->
<g id="edge14" class="edge"><title>rebe_at_mail_it&#45;&#45;jack_at_mail_it</title>
<path fill="none" stroke="black" d="M132.31,-476.398C119.141,-446.783 91.6101,-384.876 78.4788,-355.348"/>
</g>
<!-- ily_at_mail_it&#45;&#45;braccio_at_mail_it -->
<g id="edge18" class="edge"><title>ily_at_mail_it&#45;&#45;braccio_at_mail_it</title>
<path fill="none" stroke="black" d="M538.609,-223.855C527.663,-188.613 502.088,-106.277 491.151,-71.0682"/>
</g>
</g>
</svg>
